<svg width="164" height="66" viewBox="0 0 164 66" fill="none" xmlns="http://www.w3.org/2000/svg">
<g clip-path="url(#clip0_1023_24029)">
<path d="M83.4027 45.8308H78.5337V27.7318H83.4027V45.8308ZM83.3693 24.8601C82.7023 25.5279 81.891 25.8618 80.9348 25.8618C80.001 25.8618 79.2007 25.5279 78.5337 24.8601C77.8667 24.1922 77.5332 23.3908 77.5332 22.4558C77.5332 21.4985 77.8667 20.6859 78.5337 20.0181C79.2007 19.328 80.001 18.9829 80.9348 18.9829C81.891 18.9829 82.7023 19.328 83.3693 20.0181C84.0587 20.6859 84.4032 21.4985 84.4032 22.4558C84.4032 23.3908 84.0587 24.1922 83.3693 24.8601ZM99.4817 32.2399C99.6151 32.2844 99.7819 32.3512 99.982 32.4402C100.182 32.5293 100.538 32.7519 101.049 33.1081C101.56 33.442 102.005 33.8427 102.383 34.3102C102.783 34.7555 103.139 35.3788 103.45 36.1802C103.761 36.9594 103.917 37.8276 103.917 38.7849C103.917 40.7217 103.228 42.3803 101.85 43.7604C100.471 45.1405 98.8148 45.8308 96.8805 45.8308H86.8757V19.9513H96.2135C98.0144 19.9513 99.5594 20.5969 100.849 21.8881C102.139 23.1793 102.783 24.7265 102.783 26.5297C102.783 27.7096 102.494 28.8004 101.916 29.8022C101.338 30.804 100.549 31.6054 99.5484 32.2065L99.4817 32.2399ZM95.1463 24.0252H92.1115V30.6704H95.1463C96.7471 30.6704 97.5475 29.5684 97.5475 27.3645C97.5475 25.1383 96.7471 24.0252 95.1463 24.0252ZM97.9477 38.0502V37.9501C97.9477 36.837 97.7142 35.9465 97.2473 35.2786C96.8028 34.5885 96.1025 34.2434 95.1463 34.2434H92.1115V41.7902H95.1463C96.1025 41.7902 96.8028 41.4453 97.2473 40.7551C97.7142 40.0648 97.9477 39.1633 97.9477 38.0502ZM124.353 35.7795C124.42 36.1802 124.453 36.5809 124.453 36.9817V45.8308H119.617V37.182C119.617 36.6922 119.551 36.2247 119.417 35.7795C119.106 34.8445 118.55 34.0876 117.75 33.5088C116.949 32.9077 116.049 32.6072 115.048 32.6072C113.781 32.6072 112.692 33.0524 111.78 33.9429C110.891 34.8334 110.446 35.9131 110.446 37.182C110.446 38.028 110.646 38.8071 111.046 39.5195C111.469 40.2098 112.025 40.7661 112.714 41.1892C113.425 41.5899 114.203 41.7902 115.048 41.7902C116.404 41.7902 117.527 41.2893 118.417 40.2876V45.9977C117.327 46.4208 116.204 46.6322 115.048 46.6322C112.447 46.6322 110.224 45.7082 108.379 43.8606C106.533 42.013 105.611 39.7867 105.611 37.182C105.611 34.5774 106.533 32.3512 108.379 30.5034C110.224 28.6557 112.447 27.7318 115.048 27.7318C117.405 27.7318 119.461 28.4999 121.218 30.0359C122.974 31.572 124.019 33.4865 124.353 35.7795ZM136.191 27.7652C137.658 27.7652 138.914 28.0101 139.96 28.4999C141.027 28.9674 141.849 29.6464 142.427 30.5368C143.028 31.4273 143.461 32.418 143.728 33.5088C143.995 34.5996 144.128 35.824 144.128 37.182V45.8308H139.293V37.182C139.293 35.9131 138.937 34.8334 138.225 33.9429C137.536 33.0524 136.702 32.6072 135.724 32.6072C134.768 32.6072 133.945 33.0302 133.256 33.8761C132.567 34.7221 132.2 35.7572 132.156 36.9817H132.122V45.8308H127.287V27.7318H132.122V29.0008C133.367 28.1771 134.724 27.7652 136.191 27.7652ZM151.924 45.8308H147.088V22.0217H151.924V45.8308ZM163.43 27.7318L155.859 36.7813L163.43 45.8308H157.327L152.324 39.219V34.3436L157.327 27.7318H163.43Z" fill="white"/>
<path d="M65.9139 32.9991C65.9139 33.7748 65.8907 34.5502 65.8331 35.3112C65.8311 35.3747 65.8244 35.4363 65.8205 35.4979C65.755 36.3711 65.6561 37.2351 65.5235 38.0899C65.3768 39.0439 65.1888 39.983 64.9593 40.9078C62.6182 50.4374 56.1422 58.3436 47.5435 62.5979C46.7118 63.01 45.8568 63.3903 44.9847 63.732C44.7512 63.8236 44.5174 63.9128 44.282 63.9976C44.0191 64.0935 43.7539 64.187 43.4863 64.2781C43.0853 64.4144 42.68 64.5405 42.27 64.6627C42.0083 64.7413 41.7419 64.814 41.4747 64.8859C41.4622 64.8878 41.4512 64.8922 41.4386 64.8945C41.3665 64.9134 41.2943 64.9326 41.224 64.9519C40.8976 65.0367 40.5708 65.1153 40.242 65.1919C40.2098 65.1982 40.1804 65.2064 40.1482 65.2131C37.7871 65.7372 35.3757 66.0012 32.9572 66C32.7893 66 32.6237 65.998 32.456 65.9961C14.4844 65.7281 0 51.0589 0 32.9999C0 14.7757 14.7545 0 32.9567 0C47.9994 0 60.6867 10.0907 64.638 23.8803C64.9036 24.8068 65.1304 25.7525 65.3152 26.7108C65.5361 27.8614 65.6954 29.0232 65.7923 30.191C65.8185 30.4842 65.8389 30.7775 65.8562 31.0729C65.8621 31.1408 65.8644 31.2087 65.8688 31.277C65.8774 31.4532 65.8856 31.6272 65.8919 31.8061C65.9072 32.2003 65.9139 32.5996 65.9139 32.9991Z" fill="white"/>
<path d="M47.1597 45.3924C47.1593 45.3976 47.1593 45.4032 47.1597 45.4088C47.1597 45.4128 47.1597 45.4144 47.1597 45.4004C47.1597 45.3868 47.1601 45.3868 47.1597 45.3924Z" fill="white"/>
<path d="M49.0514 24.7117C50.4332 24.7117 50.6305 24.0726 49.49 23.2912L35.3595 12.0454C34.2195 11.2643 32.3492 11.2585 31.2041 12.0328L16.8498 23.3034C15.7047 24.0781 15.8985 24.7117 17.2802 24.7117H49.0514Z" fill="#0C00DF"/>
<path d="M35.1034 42.3609C35.3697 42.3601 35.6249 42.2536 35.8131 42.0651C36.0014 41.8765 36.1076 41.6211 36.1084 41.3544V30.8879C36.1076 30.6213 36.0014 30.3658 35.8131 30.1773C35.6248 29.9887 35.3697 29.8825 35.1034 29.8816H31.8482C31.5819 29.8823 31.3268 29.9886 31.1385 30.1772C30.9502 30.3658 30.8442 30.6213 30.8435 30.8879V41.3544C30.8443 41.6208 30.9503 41.8765 31.1386 42.0651C31.3268 42.2536 31.5819 42.3601 31.8482 42.3609H35.1034Z" fill="#0C00DF"/>
<path d="M46.2579 42.3609C46.5243 42.3601 46.7793 42.2536 46.9676 42.0651C47.156 41.8765 47.2619 41.6208 47.2627 41.3544V30.8879C47.2619 30.6213 47.156 30.3659 46.9676 30.1773C46.7793 29.9888 46.5243 29.8825 46.2579 29.8816H43.0026C42.7362 29.8825 42.4812 29.9888 42.2928 30.1773C42.1045 30.3659 41.9986 30.6213 41.9978 30.8879V41.3544C41.9986 41.6208 42.1045 41.8765 42.2928 42.0651C42.4812 42.2536 42.7362 42.3601 43.0026 42.3609H46.2579Z" fill="#0C00DF"/>
<path d="M23.9498 42.3609C24.216 42.3601 24.4712 42.2536 24.6595 42.0651C24.8478 41.8765 24.9539 41.6211 24.9548 41.3544V30.8879C24.954 30.6213 24.8479 30.3658 24.6595 30.1772C24.4713 29.9886 24.216 29.8823 23.9498 29.8816H20.6942C20.4279 29.8823 20.1727 29.9886 19.9844 30.1772C19.7961 30.3658 19.69 30.6213 19.6892 30.8879V41.3544C19.6901 41.6211 19.7962 41.8765 19.9845 42.0651C20.1728 42.2536 20.4279 42.3601 20.6942 42.3609H23.9498Z" fill="#0C00DF"/>
<path d="M15.9146 45.4613C15.9154 45.7281 16.0215 45.9834 16.2099 46.172C16.3982 46.3606 16.6533 46.467 16.9196 46.4678H49.2311C49.4975 46.467 49.7525 46.3606 49.9408 46.172C50.1291 45.9834 50.2351 45.7281 50.2359 45.4613V44.8732C50.2351 44.6069 50.1291 44.3511 49.9408 44.1629C49.7525 43.9744 49.4971 43.8679 49.2311 43.8671H48.2271C47.6742 43.8671 47.2305 43.829 47.2411 43.7826C47.2517 43.7363 47.1587 43.3874 47.0324 43.1171C46.9064 42.8469 45.8063 42.6265 45.2539 42.6265H44.0082C43.4554 42.6265 42.7805 42.7255 42.5082 42.8465C42.2356 42.9675 42.0033 43.6483 42.0076 43.6966C42.0123 43.7449 41.5878 43.8671 41.035 43.8671H37.0722C36.5198 43.8671 36.0759 43.829 36.0865 43.7826C36.0971 43.7363 36.0042 43.3874 35.8779 43.1171C35.7516 42.8469 34.6517 42.6265 34.0989 42.6265H32.8525C32.2997 42.6265 31.6245 42.7255 31.3522 42.8465C31.08 42.9675 30.8473 43.6483 30.8518 43.6966C30.8563 43.7449 30.432 43.8671 29.8792 43.8671H25.9163C25.3638 43.8671 24.92 43.829 24.9306 43.7826C24.9412 43.7363 24.8486 43.3874 24.7223 43.1171C24.596 42.8469 23.4961 42.6265 22.9433 42.6265H21.6998C21.147 42.6265 20.4717 42.7255 20.1995 42.8465C19.9273 42.9675 19.6946 43.6483 19.6991 43.6966C19.7036 43.7449 19.279 43.8671 18.7265 43.8671H16.9199C16.6536 43.8679 16.3985 43.9744 16.2102 44.1629C16.0219 44.3511 15.9157 44.6069 15.9149 44.8732L15.9146 45.4613Z" fill="#0C00DF"/>
<path d="M42.5012 29.2563C42.7774 29.3808 43.4558 29.4816 44.0086 29.4816H45.2543C45.8067 29.4816 46.4851 29.3799 46.7617 29.2563C47.0383 29.1327 47.2639 28.3384 47.2639 28.1698C47.2639 28.0012 47.7158 27.8631 48.2687 27.8631H49.233C49.499 27.8623 49.7545 27.7561 49.9428 27.5676C50.1307 27.3791 50.237 27.1237 50.2378 26.8571V26.2688C50.2374 26.0021 50.1311 25.7465 49.9428 25.558C49.7545 25.3694 49.499 25.2631 49.233 25.2625H16.9196C16.6533 25.2632 16.3981 25.3695 16.2098 25.558C16.0215 25.7466 15.9153 26.0021 15.9146 26.2688V26.8571C15.9154 27.1237 16.0216 27.3791 16.2099 27.5676C16.3982 27.7561 16.6533 27.8623 16.9196 27.8631H18.6847C19.2372 27.8631 19.6895 28.0012 19.6895 28.1698C19.6895 28.3384 19.791 28.7024 19.9144 28.9795C20.0379 29.2566 21.1454 29.4825 21.6982 29.4825H22.9436C23.4965 29.4825 24.1743 29.3808 24.451 29.2573C24.7278 29.1337 24.9534 28.3394 24.9534 28.1708C24.9534 28.0021 25.4059 27.8641 25.9584 27.8641H29.8381C30.3906 27.8641 30.8431 28.0021 30.8431 28.1708C30.8431 28.3394 30.9447 28.7034 31.0681 28.9805C31.1915 29.2576 32.2991 29.4835 32.8519 29.4835H34.097C34.6498 29.4835 35.3283 29.3818 35.6044 29.2582C35.8805 29.1346 36.1071 28.3404 36.1071 28.1718C36.1071 28.0031 36.5593 27.865 37.1121 27.865H40.9914C41.5443 27.865 41.9966 28.0031 41.9966 28.1718C41.9966 28.3404 42.2246 29.1314 42.5012 29.2563Z" fill="#0C00DF"/>
<path d="M53.7132 47.9247C53.7124 47.6324 53.5959 47.3523 53.3895 47.1453C53.1832 46.9383 52.9034 46.8216 52.6115 46.8208H13.5376C13.2455 46.8216 12.9656 46.9383 12.7592 47.1453C12.5527 47.3519 12.4363 47.6324 12.4355 47.9247V48.3184C12.4364 48.611 12.5528 48.8912 12.7593 49.0978C12.9658 49.3044 13.2456 49.4211 13.5376 49.4219H52.6115C52.9034 49.4211 53.1832 49.3044 53.3895 49.0978C53.5959 48.8908 53.7124 48.6107 53.7132 48.3184V47.9247Z" fill="#0C00DF"/>
</g>
<defs>
<clipPath id="clip0_1023_24029">
<rect width="164" height="66" fill="white"/>
</clipPath>
</defs>
</svg>
