<svg width="20" height="20" viewBox="0 0 20 20" fill="none" xmlns="http://www.w3.org/2000/svg">
<g clip-path="url(#clip0_1113_5748)">
<path d="M9.16683 11.6667C8.94582 11.6667 8.73385 11.5789 8.57757 11.4226C8.42129 11.2663 8.3335 11.0543 8.3335 10.8333V1.66667C8.3335 1.22464 8.50909 0.800716 8.82165 0.488155C9.13421 0.175595 9.55814 0 10.0002 0L18.3335 0C18.7755 0 19.1994 0.175595 19.512 0.488155C19.8246 0.800716 20.0002 1.22464 20.0002 1.66667V7.5C20.0002 7.94203 19.8246 8.36595 19.512 8.67851C19.1994 8.99107 18.7755 9.16667 18.3335 9.16667H12.7777L9.66683 11.5C9.52258 11.6082 9.34714 11.6667 9.16683 11.6667Z" fill="white"/>
<path d="M13.3334 10.8332V16.6665C13.3334 16.8875 13.2456 17.0995 13.0893 17.2558C12.9331 17.412 12.7211 17.4998 12.5001 17.4998H4.16675C3.94573 17.4998 3.73377 17.412 3.57749 17.2558C3.42121 17.0995 3.33341 16.8875 3.33341 16.6665V4.99984C3.33341 4.77882 3.42121 4.56686 3.57749 4.41058C3.73377 4.2543 3.94573 4.1665 4.16675 4.1665H6.66675V1.6665H4.16675C3.50371 1.6665 2.86782 1.9299 2.39898 2.39874C1.93014 2.86758 1.66675 3.50346 1.66675 4.1665V17.4998C1.66675 18.1629 1.93014 18.7988 2.39898 19.2676C2.86782 19.7364 3.50371 19.9998 4.16675 19.9998H12.5001C13.1631 19.9998 13.799 19.7364 14.2678 19.2676C14.7367 18.7988 15.0001 18.1629 15.0001 17.4998V10.8332H13.3334Z" fill="white"/>
</g>
<defs>
<clipPath id="clip0_1113_5748">
<rect width="20" height="20" fill="white"/>
</clipPath>
</defs>
</svg>
