<svg width="20" height="20" viewBox="0 0 20 20" fill="none" xmlns="http://www.w3.org/2000/svg">
<path d="M16.804 5.05664C16.8028 5.06488 16.8025 5.06677 16.8003 5.08149C16.8003 5.08149 16.8021 5.06951 16.804 5.05664Z" fill="white"/>
<path d="M16.804 5.05639C16.8097 5.0182 16.8073 5.0337 16.804 5.05639V5.05639Z" fill="white"/>
<path d="M15.9572 1.50805C15.0311 0.452533 13.3571 0 11.2155 0H5.00012C4.56198 0 4.18964 0.31865 4.12106 0.750717L1.53308 17.1642C1.48165 17.4878 1.73226 17.781 2.0603 17.781H5.89745L6.86116 11.6685L6.83127 11.8599C6.89988 11.4279 7.26941 11.1092 7.70702 11.1092H9.53045C13.1125 11.1092 15.9174 9.65423 16.7367 5.44532C16.761 5.32086 16.8003 5.08132 16.8003 5.08132C17.0327 3.52388 16.7987 2.4668 15.9572 1.50805Z" fill="white"/>
<path d="M17.7714 5.87842C16.8805 10.0222 14.0387 12.2155 9.53037 12.2155H7.89502L6.67554 20.0001H9.32795C9.71078 20.0001 10.0366 19.7212 10.0964 19.3434L10.1279 19.1785L10.7375 15.3148L10.7768 15.1013C10.8366 14.7234 11.1624 14.4446 11.5452 14.4446H12.0293C15.1627 14.4446 17.6163 13.1717 18.3333 9.48999C18.6206 8.01296 18.4829 6.77376 17.7714 5.87842Z" fill="white"/>
</svg>
