<svg width="20" height="20" viewBox="0 0 20 20" fill="none" xmlns="http://www.w3.org/2000/svg">
<g clip-path="url(#clip0_104_2967)">
<path d="M8.33338 15.8334C6.85002 15.8334 5.39997 15.3935 4.1666 14.5694C2.93323 13.7453 1.97194 12.5739 1.40428 11.2035C0.836624 9.83306 0.688099 8.32506 0.977488 6.8702C1.26688 5.41534 1.98118 4.07897 3.03008 3.03008C4.07897 1.98118 5.41534 1.26688 6.8702 0.977488C8.32506 0.688099 9.83306 0.836624 11.2035 1.40428C12.5739 1.97194 13.7453 2.93323 14.5694 4.1666C15.3935 5.39997 15.8334 6.85002 15.8334 8.33338C15.831 10.3218 15.04 12.228 13.634 13.634C12.228 15.04 10.3218 15.831 8.33338 15.8334ZM8.33338 2.50004C7.17965 2.50004 6.05184 2.84216 5.09255 3.48314C4.13326 4.12411 3.38559 5.03516 2.94408 6.10106C2.50257 7.16696 2.38705 8.33985 2.61213 9.4714C2.83721 10.603 3.39278 11.6424 4.20859 12.4582C5.02439 13.274 6.06379 13.8295 7.19535 14.0546C8.32691 14.2797 9.49979 14.1642 10.5657 13.7227C11.6316 13.2812 12.5426 12.5335 13.1836 11.5742C13.8246 10.6149 14.1667 9.4871 14.1667 8.33338C14.1649 6.78682 13.5498 5.30412 12.4562 4.21054C11.3626 3.11696 9.87993 2.50181 8.33338 2.50004Z" fill="white"/>
<path d="M5.83341 8.33341H4.16675C4.16807 7.22875 4.60748 6.16971 5.3886 5.3886C6.16971 4.60748 7.22875 4.16807 8.33341 4.16675V5.83341C7.67037 5.83341 7.03449 6.09681 6.56565 6.56565C6.09681 7.03449 5.83341 7.67037 5.83341 8.33341Z" fill="white"/>
<path d="M18.9225 17.7442L15.3758 14.1975C15.0197 14.6253 14.6253 15.0197 14.1975 15.3758L17.7442 18.9225C17.9013 19.0743 18.1118 19.1583 18.3303 19.1564C18.5488 19.1545 18.7579 19.0669 18.9124 18.9124C19.0669 18.7579 19.1545 18.5488 19.1564 18.3303C19.1583 18.1118 19.0743 17.9013 18.9225 17.7442Z" fill="white"/>
</g>
<defs>
<clipPath id="clip0_104_2967">
<rect width="20" height="20" fill="white"/>
</clipPath>
</defs>
</svg>
